<?xml version="1.0" standalone="no"?>
<!DOCTYPE svg PUBLIC "-//W3C//DTD SVG 20010904//EN"
 "http://www.w3.org/TR/2001/REC-SVG-20010904/DTD/svg10.dtd">
<svg version="1.0" xmlns="http://www.w3.org/2000/svg"
 width="960.000000pt" height="960.000000pt" viewBox="0 0 960.000000 960.000000"
 preserveAspectRatio="xMidYMid meet">
<metadata>
Created by potrace 1.14, written by Peter Selinger 2001-2017
</metadata>
<g transform="translate(0.000000,960.000000) scale(0.100000,-0.100000)"
fill="#000000" stroke="none">
<path d="M7103 9235 c-180 -39 -333 -198 -365 -377 -22 -127 21 -314 97 -417
l44 -59 -20 -454 c-10 -249 -22 -529 -26 -623 l-8 -170 -2190 -5 c-2381 -6
-2225 -2 -2473 -66 -382 -97 -709 -289 -993 -580 -236 -243 -404 -521 -516
-853 l-48 -143 -65 -51 c-259 -202 -445 -505 -512 -837 -23 -114 -23 -123 -23
-805 0 -682 0 -691 23 -805 58 -284 196 -539 401 -739 82 -80 233 -189 314
-227 34 -16 46 -33 97 -134 120 -234 263 -432 455 -629 357 -366 763 -596
1255 -710 213 -50 819 -130 1245 -166 581 -48 1421 -48 2015 0 523 43 1075
122 1340 191 298 78 607 229 869 425 145 108 378 342 491 492 85 113 188 276
250 397 51 101 63 118 97 134 88 41 240 153 327 240 205 206 335 454 393 751
16 81 18 159 18 780 0 682 0 691 -23 805 -67 332 -253 635 -512 837 l-65 51
-48 143 c-112 332 -280 610 -516 853 -218 223 -459 388 -724 492 -72 29 -98
44 -101 59 -3 11 -21 318 -41 681 l-37 661 37 49 c21 27 47 69 57 94 42 97 60
280 37 379 -38 167 -178 298 -358 337 -80 17 -117 17 -198 -1z m169 -156 c105
-22 192 -96 224 -192 13 -39 15 -71 11 -141 -7 -114 -26 -167 -82 -236 -25
-30 -48 -70 -51 -88 -4 -19 10 -328 31 -688 21 -360 35 -657 32 -660 -3 -3
-49 4 -104 15 -86 18 -268 41 -326 41 -23 0 -24 -54 13 808 l20 473 -20 42
c-11 23 -36 61 -55 85 -68 84 -93 268 -48 363 38 84 128 156 220 178 53 13 75
13 135 0z m-37 -2131 c203 -40 363 -92 530 -173 520 -251 921 -749 1070 -1330
72 -280 70 -240 70 -1425 0 -1166 1 -1151 -61 -1430 -202 -907 -862 -1620
-1719 -1855 -330 -90 -1099 -185 -1750 -216 -282 -13 -1140 -7 -1375 10 -516
38 -1172 121 -1430 182 -435 102 -816 315 -1136 633 -368 368 -606 833 -703
1374 -37 207 -43 413 -38 1432 5 1055 2 1013 67 1278 167 688 697 1258 1352
1456 132 40 243 63 354 75 43 5 1116 8 2384 7 2054 -2 2314 -4 2385 -18z
m-6688 -1770 c-14 -79 -21 -1988 -8 -2188 15 -234 55 -455 116 -648 15 -46 25
-86 23 -88 -7 -7 -131 100 -187 161 -167 184 -279 421 -315 666 -23 156 -23
1272 0 1428 27 187 106 386 212 536 52 74 149 185 161 185 4 0 3 -24 -2 -52z
m8555 5 c113 -116 214 -289 273 -466 63 -189 67 -245 62 -973 -3 -617 -4 -653
-24 -739 -55 -232 -154 -425 -304 -590 -56 -60 -180 -168 -186 -161 -3 2 9 48
26 102 61 199 95 393 111 635 14 198 7 2106 -7 2187 -5 28 -7 52 -3 52 3 0 27
-21 52 -47z"/>
<path d="M3026 6399 c-428 -39 -828 -232 -1072 -517 -166 -194 -264 -395 -325
-667 -23 -100 -23 -101 -27 -1170 -4 -1139 -2 -1196 44 -1405 35 -159 75 -273
148 -425 76 -157 147 -270 248 -390 264 -316 598 -522 989 -609 115 -25 356
-54 684 -81 820 -67 1645 -57 2494 30 336 35 465 64 671 151 509 214 916 694
1055 1243 63 253 60 176 60 1416 l0 1130 -23 105 c-45 204 -114 374 -210 520
-234 353 -604 579 -1077 657 -90 15 -269 17 -1830 19 -952 1 -1774 -2 -1829
-7z m3514 -159 c157 -14 258 -34 386 -76 329 -109 587 -315 748 -599 55 -95
99 -214 134 -360 l27 -110 0 -1120 0 -1120 -23 -112 c-31 -153 -65 -266 -115
-387 -156 -369 -447 -679 -805 -860 -182 -92 -365 -137 -692 -170 -951 -98
-1849 -98 -2800 0 -135 13 -285 34 -335 46 -324 75 -582 222 -815 464 -243
253 -377 511 -458 882 l-27 127 0 1125 0 1125 27 110 c35 146 79 265 134 360
219 386 624 631 1114 674 139 12 3360 13 3500 1z"/>
<path d="M3335 5300 c-214 -43 -386 -196 -463 -412 -23 -64 -26 -89 -26 -203
-1 -108 3 -142 21 -200 61 -193 212 -347 403 -411 77 -26 253 -26 330 0 192
65 331 204 401 403 29 82 37 255 15 346 -18 78 -54 167 -67 167 -5 0 -9 -4 -9
-9 0 -16 -55 -64 -95 -82 -56 -26 -103 -23 -166 9 -77 39 -114 101 -114 192 0
58 4 74 32 119 l33 52 -24 9 c-71 27 -192 36 -271 20z"/>
<path d="M6075 5300 c-406 -82 -615 -538 -423 -921 70 -141 201 -252 358 -305
77 -26 253 -26 330 0 165 56 287 161 364 315 81 159 87 380 16 546 -12 27 -23
51 -25 54 -3 2 -22 -12 -44 -32 -80 -72 -214 -66 -287 15 -62 67 -77 176 -37
258 26 52 24 54 -62 69 -70 12 -131 13 -190 1z"/>
<path d="M3567 3224 c-3 -3 3 -28 13 -55 134 -340 409 -599 753 -708 163 -52
259 -65 472 -65 283 0 487 44 675 145 262 141 459 393 515 657 l7 32 -1215 0
c-667 0 -1216 -3 -1220 -6z"/>
</g>
</svg>
